<svg width="40" height="40" viewBox="0 0 40 40" fill="none" xmlns="http://www.w3.org/2000/svg">
<g id="AI&#229;&#164;&#180;&#229;&#131;&#143; &#232;&#147;&#157;&#232;&#137;&#178;">
<path id="Vector" d="M9 28.9809C11.0055 30.8552 13.5001 32.1411 16.2044 32.6945C18.9087 33.2478 21.7156 33.0467 24.3106 32.1137C26.9061 31.1821 29.1874 29.5553 30.8988 27.4157C32.6102 25.2761 33.684 22.7082 34 20C30.4774 22.1868 26.3967 24.1557 21.9638 25.7487C17.5308 27.3405 13.123 28.422 9 28.9809Z" fill="#3598FE"/>
<path id="Subtract" d="M33.6101 13.5631C33.5174 13.2586 33.4165 12.9541 33.303 12.6518C30.4568 5.0422 21.8116 1.1184 13.9938 3.8884C6.17493 6.65841 2.14321 15.0722 4.9894 22.6807C5.10297 22.9841 5.22465 23.2807 5.35561 23.5717C5.1134 23.5897 4.87352 23.6055 4.63479 23.6191C4.40689 23.6323 4.18391 23.6891 3.97857 23.7863C3.77323 23.8834 3.58956 24.0189 3.43805 24.1851C3.28653 24.3513 3.17013 24.545 3.09551 24.7549C3.02088 24.9649 2.98948 25.1872 3.0031 25.409C3.01672 25.6308 3.07509 25.8478 3.17489 26.0476C3.27468 26.2475 3.41395 26.4262 3.58473 26.5737C3.75551 26.7211 3.95446 26.8344 4.17022 26.907C4.38598 26.9797 4.61433 27.0102 4.84223 26.997C9.85087 26.706 15.5386 25.5454 21.326 23.495C27.1134 21.4457 32.238 18.7761 36.2662 15.8651C36.4552 15.7348 36.6156 15.5691 36.7379 15.3778C36.8601 15.1864 36.9419 14.9731 36.9784 14.7505C37.0148 14.528 37.0052 14.3005 36.95 14.0816C36.8949 13.8627 36.7954 13.6568 36.6573 13.4758C36.5193 13.2948 36.3455 13.1426 36.1461 13.0279C35.9467 12.9132 35.7258 12.8385 35.4963 12.8081C35.2669 12.7776 35.0335 12.7921 34.8099 12.8507C34.5862 12.9093 34.3769 13.0108 34.1941 13.1492C34.0018 13.2868 33.8071 13.4255 33.6101 13.5631Z" fill="#5DADFE"/>
<ellipse id="Ellipse 5" cx="21" cy="37" rx="10" ry="1" fill="url(#paint0_linear_85_1695)"/>
<rect id="Rectangle 527" x="11" y="15.5818" width="4" height="5" rx="2" transform="rotate(-23.2954 11 15.5818)" fill="white"/>
<rect id="Rectangle 528" x="21" y="11.5818" width="4" height="5" rx="2" transform="rotate(-23.2954 21 11.5818)" fill="white"/>
</g>
<defs>
<linearGradient id="paint0_linear_85_1695" x1="11" y1="37" x2="31" y2="37" gradientUnits="userSpaceOnUse">
<stop stop-opacity="0"/>
<stop offset="0.496565" stop-opacity="0.2"/>
<stop offset="1" stop-opacity="0"/>
</linearGradient>
</defs>
</svg>
