<svg width="32" height="34" viewBox="0 0 32 34" fill="none" xmlns="http://www.w3.org/2000/svg">
<circle cx="16" cy="16" r="16" fill="#0098FF"/>
<g clip-path="url(#clip0_720_3072)">
<path d="M25.0264 18.1919L18.9322 9.28582C18.8385 9.14886 18.6949 9.05722 18.5357 9.02877C18.3724 9.00065 18.2059 9.03472 18.073 9.12802L15.8873 10.6462C15.61 10.842 15.5375 11.2236 15.7292 11.5013L16.581 12.7456L7.95269 18.7513C7.67532 18.9471 7.60287 19.3287 7.79455 19.6064L8.39852 20.4909L5.34105 22.6161C5.06368 22.8119 4.99123 23.1935 5.18291 23.4712L7.27503 26.5272C7.36866 26.6642 7.50821 26.7562 7.6715 26.7843C7.8348 26.8124 8.00134 26.7783 8.13421 26.685L11.1838 24.5645L11.7408 25.3784C11.8344 25.5154 11.9781 25.607 12.1373 25.6355C12.3006 25.6636 12.4671 25.6295 12.6 25.5362L21.2167 19.5397L21.8111 20.4084C21.9047 20.5453 22.0443 20.6373 22.2076 20.6654C22.3709 20.6935 22.5374 20.6595 22.6703 20.5662L24.8556 19.0439C25.1459 18.8553 25.2181 18.4696 25.0264 18.1919ZM7.94953 25.3167L6.55467 23.278L9.09989 21.5078L10.4947 23.5465L7.94953 25.3167Z" fill="white"/>
<path d="M16.8615 24.8292C16.7255 24.6791 16.5214 24.6047 16.3213 24.6333C16.121 24.6577 15.9453 24.7833 15.8525 24.9642L13.0008 30.5619C12.8438 30.8677 12.9645 31.2379 13.2703 31.3949C13.5758 31.5478 13.9459 31.4271 14.0992 31.1257L16.5445 26.3247L20.4822 30.6605C20.7092 30.9147 21.1029 30.9325 21.353 30.7059C21.6028 30.4751 21.625 30.0852 21.3943 29.8354L16.8615 24.8292Z" fill="white"/>
</g>
<defs>
<clipPath id="clip0_720_3072">
<rect width="24.6938" height="24.6938" fill="white" transform="translate(3.2124 8.82825) rotate(-4.61084)"/>
</clipPath>
</defs>
</svg>
